<svg width="200" height="64" viewBox="0 0 200 64" fill="none" xmlns="http://www.w3.org/2000/svg">
<path d="M24.712 1.584C25.544 1.584 26.248 1.792 26.824 2.208C27.4 2.592 27.688 3.072 27.688 3.648C27.688 4.672 27.368 5.504 26.728 6.144C26.088 6.752 25.176 7.056 23.992 7.056C22.136 7.056 20.728 7.072 19.768 7.104C19.704 7.488 19.416 9.216 18.904 12.288C18.328 15.712 17.976 17.808 17.848 18.576L16.84 24.864C16.136 29.568 15.576 33.504 15.16 36.672C15.832 36.64 16.744 36.624 17.896 36.624C19.592 36.624 20.744 36.848 21.352 37.296C21.96 37.744 22.264 38.416 22.264 39.312C22.264 40.144 21.928 40.848 21.256 41.424C20.616 42 19.704 42.288 18.52 42.288C17.72 42.288 16.456 42.256 14.728 42.192C13.128 42.128 12.072 42.096 11.56 42.096C9.544 42.096 7.336 42.272 4.936 42.624C3.88 42.784 3.128 42.864 2.68 42.864C1.976 42.864 1.384 42.672 0.904 42.288C0.424 41.904 0.184 41.344 0.184 40.608C0.184 39.456 0.696 38.56 1.72 37.92C2.744 37.28 4.184 36.944 6.04 36.912L8.296 36.864L8.44 35.808C9.208 30.688 9.768 27.072 10.12 24.96L11.176 18.672C11.816 14.96 12.392 11.136 12.904 7.2L8.872 7.248C7.72 7.248 6.92 7.072 6.472 6.72C6.056 6.336 5.848 5.808 5.848 5.136C5.848 2.96 7.416 1.792 10.552 1.632C12.024 1.568 13.816 1.536 15.928 1.536L24.712 1.584ZM30.4776 42.24C29.2616 42.24 28.3976 41.6 27.8856 40.32C27.4056 39.04 27.1656 36.992 27.1656 34.176C27.1656 30.016 27.7576 26.064 28.9416 22.32C29.2296 21.392 29.6936 20.72 30.3336 20.304C31.0056 19.856 31.9336 19.632 33.1176 19.632C33.7576 19.632 34.2056 19.712 34.4616 19.872C34.7176 20.032 34.8456 20.336 34.8456 20.784C34.8456 21.296 34.6056 22.448 34.1256 24.24C33.8056 25.52 33.5496 26.64 33.3576 27.6C33.1656 28.528 33.0056 29.696 32.8776 31.104C33.7416 28.608 34.7656 26.496 35.9496 24.768C37.1656 23.04 38.3976 21.76 39.6456 20.928C40.9256 20.064 42.1256 19.632 43.2456 19.632C44.3656 19.632 45.1496 19.888 45.5976 20.4C46.0776 20.912 46.3176 21.696 46.3176 22.752C46.3176 23.776 46.0136 25.632 45.4056 28.32C45.1496 29.472 44.9736 30.336 44.8776 30.912C46.4776 26.976 48.2536 24.112 50.2056 22.32C52.1576 20.528 53.9816 19.632 55.6776 19.632C57.7576 19.632 58.7976 20.672 58.7976 22.752C58.7976 24 58.4456 26.256 57.7416 29.52C57.1336 32.304 56.8296 34.144 56.8296 35.04C56.8296 36.32 57.2936 36.96 58.2216 36.96C58.8616 36.96 59.6136 36.576 60.4776 35.808C61.3736 35.008 62.5576 33.728 64.0296 31.968C64.4136 31.52 64.8456 31.296 65.3256 31.296C65.7416 31.296 66.0616 31.488 66.2856 31.872C66.5416 32.256 66.6696 32.784 66.6696 33.456C66.6696 34.736 66.3656 35.728 65.7576 36.432C64.3816 38.128 62.8936 39.52 61.2936 40.608C59.7256 41.696 57.9336 42.24 55.9176 42.24C54.2856 42.24 53.0536 41.776 52.2216 40.848C51.3896 39.888 50.9736 38.512 50.9736 36.72C50.9736 35.824 51.1976 34.224 51.6456 31.92C52.0616 29.904 52.2696 28.512 52.2696 27.744C52.2696 27.232 52.0936 26.976 51.7416 26.976C51.3256 26.976 50.7336 27.52 49.9656 28.608C49.1976 29.664 48.4296 31.072 47.6616 32.832C46.8936 34.592 46.2696 36.448 45.7896 38.4C45.4376 39.936 45.0216 40.96 44.5416 41.472C44.0936 41.984 43.3576 42.24 42.3336 42.24C41.2776 42.24 40.4776 41.744 39.9336 40.752C39.4216 39.728 39.1656 38.496 39.1656 37.056C39.1656 35.84 39.3256 34.08 39.6456 31.776C39.9016 29.728 40.0296 28.384 40.0296 27.744C40.0296 27.232 39.8536 26.976 39.5016 26.976C39.0216 26.976 38.4136 27.552 37.6776 28.704C36.9416 29.856 36.2216 31.328 35.5176 33.12C34.8456 34.912 34.3016 36.672 33.8856 38.4C33.5336 39.904 33.1176 40.928 32.6376 41.472C32.1896 41.984 31.4696 42.24 30.4776 42.24ZM87.3644 31.392C87.7804 31.392 88.1004 31.6 88.3244 32.016C88.5804 32.4 88.7084 32.896 88.7084 33.504C88.7084 34.24 88.5964 34.816 88.3724 35.232C88.1484 35.648 87.7964 36.016 87.3164 36.336C84.5644 38.192 82.5484 39.568 81.2684 40.464L78.1964 42.528C76.9804 49.152 75.3804 54.352 73.3964 58.128C71.4444 61.936 68.9484 63.84 65.9084 63.84C64.2764 63.84 62.9484 63.328 61.9244 62.304C60.9004 61.312 60.3884 60 60.3884 58.368C60.3884 56.096 61.2844 53.648 63.0764 51.024C64.8684 48.432 68.2284 45.232 73.1564 41.424L73.4444 39.552C72.9004 40.416 72.1804 41.088 71.2844 41.568C70.4204 42.016 69.5564 42.24 68.6924 42.24C66.7084 42.24 65.1244 41.52 63.9404 40.08C62.7564 38.64 62.1644 36.752 62.1644 34.416C62.1644 31.856 62.7564 29.44 63.9404 27.168C65.1244 24.864 66.6924 23.024 68.6444 21.648C70.6284 20.24 72.7244 19.536 74.9324 19.536C75.6364 19.536 76.1004 19.68 76.3244 19.968C76.5804 20.224 76.7884 20.704 76.9484 21.408C77.5564 21.28 78.2604 21.216 79.0604 21.216C79.8604 21.216 80.4204 21.344 80.7404 21.6C81.0924 21.824 81.2684 22.288 81.2684 22.992C81.2684 23.376 81.2524 23.68 81.2204 23.904C81.0924 24.896 80.6924 27.408 80.0204 31.44C79.8924 32.208 79.7484 33.056 79.5884 33.984C79.4604 34.88 79.3164 35.84 79.1564 36.864C81.6204 34.944 83.9884 33.248 86.2604 31.776C86.6764 31.52 87.0444 31.392 87.3644 31.392ZM70.4204 37.392C71.1564 37.392 71.8604 36.944 72.5324 36.048C73.2044 35.152 73.6844 33.872 73.9724 32.208L75.5084 24C74.1964 24.032 72.9804 24.544 71.8604 25.536C70.7404 26.496 69.8444 27.776 69.1724 29.376C68.5004 30.976 68.1644 32.672 68.1644 34.464C68.1644 35.456 68.3564 36.192 68.7404 36.672C69.1564 37.152 69.7164 37.392 70.4204 37.392ZM66.4364 59.184C67.2364 59.184 68.1324 58.224 69.1244 56.304C70.1484 54.384 71.1244 51.328 72.0524 47.136C69.5884 49.248 67.8124 51.152 66.7244 52.848C65.6364 54.544 65.0924 56.032 65.0924 57.312C65.0924 57.856 65.1884 58.304 65.3804 58.656C65.6044 59.008 65.9564 59.184 66.4364 59.184ZM98.2371 42.24C96.3811 42.24 94.2851 42.08 91.9491 41.76C90.6691 41.6 89.7891 41.264 89.3091 40.752C88.8291 40.24 88.6211 39.408 88.6851 38.256C88.9091 35.088 89.4371 31.184 90.2691 26.544C91.1011 21.872 92.1091 17.376 93.2931 13.056C93.5171 12.256 93.9651 11.696 94.6371 11.376C95.3091 11.056 96.1891 10.896 97.2771 10.896C99.2291 10.896 100.205 11.44 100.205 12.528C100.205 12.976 100.109 13.488 99.9171 14.064C99.0851 16.624 98.2531 20.064 97.4211 24.384C96.5891 28.672 95.9971 32.768 95.6451 36.672C96.6051 36.768 97.6931 36.816 98.9091 36.816C104.509 36.816 108.685 35.12 111.437 31.728C114.221 28.336 115.613 23.808 115.613 18.144C115.613 14.336 114.525 11.392 112.349 9.312C110.173 7.232 107.101 6.192 103.133 6.192C100.573 6.192 98.0291 6.592 95.5011 7.392C93.0051 8.192 90.7491 9.248 88.7331 10.56C88.3171 10.848 87.8691 10.992 87.3891 10.992C86.8451 10.992 86.4131 10.768 86.0931 10.32C85.7731 9.84 85.6131 9.264 85.6131 8.592C85.6131 7.824 85.7411 7.2 85.9971 6.72C86.2531 6.208 86.6851 5.744 87.2931 5.328C89.5011 3.824 92.0931 2.688 95.0691 1.92C98.0451 1.12 100.909 0.719999 103.661 0.719999C107.565 0.719999 110.941 1.408 113.789 2.784C116.637 4.128 118.829 6.112 120.365 8.736C121.901 11.36 122.669 14.528 122.669 18.24C122.669 23.072 121.709 27.296 119.789 30.912C117.869 34.496 115.069 37.28 111.389 39.264C107.709 41.248 103.325 42.24 98.2371 42.24ZM128.821 42.24C127.605 42.24 126.741 41.6 126.229 40.32C125.749 39.04 125.509 36.992 125.509 34.176C125.509 30.016 126.101 26.064 127.285 22.32C127.573 21.392 128.037 20.72 128.677 20.304C129.349 19.856 130.277 19.632 131.461 19.632C132.101 19.632 132.549 19.712 132.805 19.872C133.061 20.032 133.189 20.336 133.189 20.784C133.189 21.296 132.949 22.448 132.469 24.24C132.149 25.52 131.893 26.64 131.701 27.6C131.509 28.56 131.349 29.744 131.221 31.152C132.277 28.4 133.461 26.16 134.773 24.432C136.085 22.704 137.365 21.472 138.613 20.736C139.893 20 141.061 19.632 142.117 19.632C144.197 19.632 145.237 20.672 145.237 22.752C145.237 23.168 145.093 24.176 144.805 25.776C144.549 27.056 144.421 27.856 144.421 28.176C144.421 29.296 144.821 29.856 145.621 29.856C146.517 29.856 147.669 29.152 149.077 27.744C149.493 27.328 149.925 27.12 150.373 27.12C150.789 27.12 151.109 27.312 151.333 27.696C151.589 28.048 151.717 28.528 151.717 29.136C151.717 30.32 151.397 31.248 150.757 31.92C149.861 32.848 148.805 33.648 147.589 34.32C146.405 34.96 145.141 35.28 143.797 35.28C142.101 35.28 140.805 34.848 139.909 33.984C139.045 33.12 138.613 31.952 138.613 30.48C138.613 30 138.661 29.52 138.757 29.04C138.821 28.4 138.853 27.968 138.853 27.744C138.853 27.232 138.677 26.976 138.325 26.976C137.845 26.976 137.205 27.52 136.405 28.608C135.637 29.664 134.869 31.072 134.101 32.832C133.333 34.592 132.709 36.448 132.229 38.4C131.877 39.904 131.461 40.928 130.981 41.472C130.533 41.984 129.813 42.24 128.821 42.24ZM153.545 16.464C152.201 16.464 151.193 16.16 150.521 15.552C149.849 14.912 149.513 14.032 149.513 12.912C149.513 11.792 149.945 10.864 150.809 10.128C151.705 9.36 152.809 8.976 154.121 8.976C155.305 8.976 156.265 9.264 157.001 9.84C157.737 10.416 158.105 11.232 158.105 12.288C158.105 13.568 157.689 14.592 156.857 15.36C156.025 16.096 154.921 16.464 153.545 16.464ZM153.161 42.24C151.081 42.24 149.561 41.504 148.601 40.032C147.673 38.56 147.209 36.608 147.209 34.176C147.209 32.736 147.385 30.896 147.737 28.656C148.121 26.384 148.601 24.272 149.177 22.32C149.465 21.296 149.849 20.592 150.329 20.208C150.809 19.824 151.577 19.632 152.633 19.632C154.265 19.632 155.081 20.176 155.081 21.264C155.081 22.064 154.777 23.92 154.169 26.832C153.401 30.352 153.017 32.736 153.017 33.984C153.017 34.944 153.145 35.68 153.401 36.192C153.657 36.704 154.089 36.96 154.697 36.96C155.273 36.96 155.993 36.56 156.857 35.76C157.721 34.96 158.873 33.696 160.313 31.968C160.697 31.52 161.129 31.296 161.609 31.296C162.025 31.296 162.345 31.488 162.569 31.872C162.825 32.256 162.953 32.784 162.953 33.456C162.953 34.736 162.649 35.728 162.041 36.432C158.873 40.304 155.913 42.24 153.161 42.24ZM183.298 27.408C183.394 27.376 183.554 27.36 183.778 27.36C184.258 27.36 184.626 27.52 184.882 27.84C185.138 28.16 185.266 28.592 185.266 29.136C185.266 30.128 185.074 30.912 184.69 31.488C184.306 32.032 183.73 32.432 182.962 32.688C181.49 33.168 179.922 33.408 178.258 33.408C176.85 33.408 175.522 33.216 174.274 32.832C173.346 34.336 172.322 35.888 171.202 37.488C169.922 39.312 168.818 40.56 167.89 41.232C166.962 41.904 165.906 42.24 164.722 42.24C163.41 42.24 162.37 41.728 161.602 40.704C160.866 39.68 160.402 38.064 160.21 35.856C159.826 31.376 159.634 27.456 159.634 24.096V22.416C159.666 21.36 159.954 20.624 160.498 20.208C161.042 19.792 161.858 19.584 162.946 19.584C163.778 19.584 164.386 19.776 164.77 20.16C165.186 20.512 165.394 21.12 165.394 21.984C165.394 25.664 165.618 30.448 166.066 36.336C167.986 33.488 169.426 31.216 170.386 29.52C169.906 28.592 169.666 27.488 169.666 26.208C169.666 25.12 169.906 24.064 170.386 23.04C170.866 22.016 171.522 21.184 172.354 20.544C173.186 19.904 174.13 19.584 175.186 19.584C176.114 19.584 176.866 19.92 177.442 20.592C178.018 21.232 178.306 22.176 178.306 23.424C178.306 24.864 177.922 26.512 177.154 28.368C178.37 28.304 179.986 28.064 182.002 27.648L183.298 27.408ZM198.285 32.736C198.701 32.736 199.021 32.928 199.245 33.312C199.501 33.696 199.629 34.224 199.629 34.896C199.629 36.048 199.357 37.04 198.813 37.872C197.917 39.248 196.733 40.32 195.261 41.088C193.821 41.856 192.093 42.24 190.077 42.24C187.005 42.24 184.621 41.328 182.925 39.504C181.229 37.648 180.381 35.152 180.381 32.016C180.381 29.808 180.845 27.76 181.773 25.872C182.701 23.952 183.981 22.432 185.613 21.312C187.277 20.192 189.149 19.632 191.229 19.632C193.085 19.632 194.573 20.192 195.693 21.312C196.813 22.4 197.373 23.888 197.373 25.776C197.373 27.984 196.573 29.888 194.973 31.488C193.405 33.056 190.717 34.304 186.909 35.232C187.677 36.704 188.973 37.44 190.797 37.44C192.109 37.44 193.181 37.136 194.013 36.528C194.877 35.92 195.869 34.896 196.989 33.456C197.373 32.976 197.805 32.736 198.285 32.736ZM190.413 24.336C189.229 24.336 188.221 25.024 187.389 26.4C186.589 27.776 186.189 29.44 186.189 31.392V31.488C188.077 31.04 189.565 30.368 190.653 29.472C191.741 28.576 192.285 27.536 192.285 26.352C192.285 25.744 192.109 25.264 191.757 24.912C191.437 24.528 190.989 24.336 190.413 24.336Z" fill="black"/>
</svg>
